<svg xmlns="http://www.w3.org/2000/svg" xmlns:xlink="http://www.w3.org/1999/xlink" viewBox="0 0 430 430" width="430" height="430" preserveAspectRatio="xMidYMid meet" style="width: 100%; height: 100%; transform: translate3d(0px, 0px, 0px); content-visibility: visible;"><defs><clipPath id="__lottie_element_4672"><rect width="430" height="430" x="0" y="0"/></clipPath><clipPath id="__lottie_element_4674"><path d="M0,0 L430,0 L430,430 L0,430z"/></clipPath></defs><g clip-path="url(#__lottie_element_4672)"><g clip-path="url(#__lottie_element_4674)" transform="matrix(1,0,0,1,0,0)" opacity="1" style="display: block;"><g transform="matrix(1.059999942779541,0,0,1.059999942779541,373.36907958984375,255.62200927734375)" opacity="1" style="display: block;"><g opacity="1" transform="matrix(1,0,0,1,0,0)"><path class="secondary" fill="rgb(255,199,56)" fill-opacity="1" d=" M-28.799999237060547,-38.51900100708008 C-28.799999237060547,-38.51900100708008 5.039999961853027,-38.51900100708008 5.039999961853027,-38.51900100708008 C5.039999961853027,-38.51900100708008 28.799999237060547,-39.23899841308594 28.799999237060547,-14.038999557495117 C28.799999237060547,11.16100025177002 28.799999237060547,38.520999908447266 28.799999237060547,38.520999908447266 C28.799999237060547,38.520999908447266 -28.799999237060547,38.520999908447266 -28.799999237060547,38.520999908447266 C-28.799999237060547,38.520999908447266 -28.799999237060547,-38.51900100708008 -28.799999237060547,-38.51900100708008z"/></g></g><g transform="matrix(1.059999942779541,0,0,1.059999942779541,291.3250732421875,215.93699645996094)" opacity="1" style="display: block;"><g opacity="1" transform="matrix(1,0,0,1,0,0)"><path class="primary" fill="rgb(235,230,239)" fill-opacity="1" d=" M-14.760000228881836,-75.95999908447266 C-14.760000228881836,-75.95999908447266 -14.760000228881836,75.95999908447266 -14.760000228881836,75.95999908447266 C-14.760000228881836,75.95999908447266 14.760000228881836,75.95999908447266 14.760000228881836,75.95999908447266 C14.760000228881836,75.95999908447266 14.760000228881836,-75.95999908447266 14.760000228881836,-75.95999908447266 C14.760000228881836,-75.95999908447266 -14.760000228881836,-75.95999908447266 -14.760000228881836,-75.95999908447266z"/></g></g><g transform="matrix(1.059999942779541,0,0,1.059999942779541,324.90606689453125,215.93699645996094)" opacity="1" style="display: block;"><g opacity="1" transform="matrix(1,0,0,1,0,0)"><path class="primary" fill="rgb(235,230,239)" fill-opacity="1" d=" M-16.920000076293945,-75.95999908447266 C-16.920000076293945,-75.95999908447266 -16.920000076293945,75.95999908447266 -16.920000076293945,75.95999908447266 C-16.920000076293945,75.95999908447266 16.920000076293945,75.95999908447266 16.920000076293945,75.95999908447266 C16.920000076293945,75.95999908447266 16.920000076293945,-1.0800000429153442 16.920000076293945,-1.0800000429153442 C16.920000076293945,-1.0800000429153442 4.679999828338623,-75.95999908447266 4.679999828338623,-75.95999908447266 C4.679999828338623,-75.95999908447266 -16.920000076293945,-75.95999908447266 -16.920000076293945,-75.95999908447266z"/></g></g><g transform="matrix(1.059999942779541,0,0,1.059999942779541,62.74706268310547,175.2969970703125)" opacity="1" style="display: block;"><g opacity="1" transform="matrix(1,0,0,1,0,0)"><path class="primary" fill="rgb(235,230,239)" fill-opacity="1" d=" M-18.719999313354492,-37.619998931884766 C-18.719999313354492,-37.619998931884766 -18.719999313354492,37.619998931884766 -18.719999313354492,37.619998931884766 C-18.719999313354492,37.619998931884766 18.719999313354492,37.619998931884766 18.719999313354492,37.619998931884766 C18.719999313354492,37.619998931884766 18.719999313354492,-37.619998931884766 18.719999313354492,-37.619998931884766 C18.719999313354492,-37.619998931884766 -18.719999313354492,-37.619998931884766 -18.719999313354492,-37.619998931884766z"/></g></g><g transform="matrix(1.059999942779541,0,0,1.059999942779541,102.05206298828125,175.2969970703125)" opacity="1" style="display: block;"><g opacity="1" transform="matrix(1,0,0,1,0,0)"><path class="primary" fill="rgb(235,230,239)" fill-opacity="1" d=" M-18.360000610351562,-37.619998931884766 C-18.360000610351562,-37.619998931884766 -18.360000610351562,37.619998931884766 -18.360000610351562,37.619998931884766 C-18.360000610351562,37.619998931884766 18.360000610351562,37.619998931884766 18.360000610351562,37.619998931884766 C18.360000610351562,37.619998931884766 18.360000610351562,-37.619998931884766 18.360000610351562,-37.619998931884766 C18.360000610351562,-37.619998931884766 -18.360000610351562,-37.619998931884766 -18.360000610351562,-37.619998931884766z"/></g></g><g transform="matrix(1.059999942779541,0,0,1.059999942779541,140.21206665039062,175.2969970703125)" opacity="1" style="display: block;"><g opacity="1" transform="matrix(1,0,0,1,0,0)"><path class="primary" fill="rgb(235,230,239)" fill-opacity="1" d=" M-17.639999389648438,-37.619998931884766 C-17.639999389648438,-37.619998931884766 -17.639999389648438,37.619998931884766 -17.639999389648438,37.619998931884766 C-17.639999389648438,37.619998931884766 17.639999389648438,37.619998931884766 17.639999389648438,37.619998931884766 C17.639999389648438,37.619998931884766 17.639999389648438,-37.619998931884766 17.639999389648438,-37.619998931884766 C17.639999389648438,-37.619998931884766 -17.639999389648438,-37.619998931884766 -17.639999389648438,-37.619998931884766z"/></g></g><g transform="matrix(1.059999942779541,0,0,1.059999942779541,177.9900665283203,175.2969970703125)" opacity="1" style="display: block;"><g opacity="1" transform="matrix(1,0,0,1,0,0)"><path class="primary" fill="rgb(235,230,239)" fill-opacity="1" d=" M-18,-37.619998931884766 C-18,-37.619998931884766 -18,37.619998931884766 -18,37.619998931884766 C-18,37.619998931884766 18,37.619998931884766 18,37.619998931884766 C18,37.619998931884766 18,-37.619998931884766 18,-37.619998931884766 C18,-37.619998931884766 -18,-37.619998931884766 -18,-37.619998931884766z"/></g></g><g transform="matrix(1.059999942779541,0,0,1.059999942779541,216.15005493164062,175.2969970703125)" opacity="1" style="display: block;"><g opacity="1" transform="matrix(1,0,0,1,0,0)"><path class="primary" fill="rgb(235,230,239)" fill-opacity="1" d=" M-18,-37.619998931884766 C-18,-37.619998931884766 -18,37.619998931884766 -18,37.619998931884766 C-18,37.619998931884766 18,37.619998931884766 18,37.619998931884766 C18,37.619998931884766 18,-37.619998931884766 18,-37.619998931884766 C18,-37.619998931884766 -18,-37.619998931884766 -18,-37.619998931884766z"/></g></g><g transform="matrix(1.059999942779541,0,0,1.059999942779541,255.45506286621094,175.2969970703125)" opacity="1" style="display: block;"><g opacity="1" transform="matrix(1,0,0,1,0,0)"><path class="primary" fill="rgb(235,230,239)" fill-opacity="1" d=" M-19.079999923706055,-37.619998931884766 C-19.079999923706055,-37.619998931884766 -19.079999923706055,37.619998931884766 -19.079999923706055,37.619998931884766 C-19.079999923706055,37.619998931884766 19.079999923706055,37.619998931884766 19.079999923706055,37.619998931884766 C19.079999923706055,37.619998931884766 19.079999923706055,-37.619998931884766 19.079999923706055,-37.619998931884766 C19.079999923706055,-37.619998931884766 -19.079999923706055,-37.619998931884766 -19.079999923706055,-37.619998931884766z"/></g></g><g transform="matrix(1.059999942779541,0,0,1.059999942779541,159.52105712890625,255.62399291992188)" opacity="1" style="display: block;"><g opacity="1" transform="matrix(1,0,0,1,0,0)"><path class="secondary" fill="rgb(255,199,56)" fill-opacity="1" d=" M-110.01699829101562,-37.79999923706055 C-110.01699829101562,-37.79999923706055 -110.01699829101562,38.52000045776367 -110.01699829101562,38.52000045776367 C-110.01699829101562,38.52000045776367 110.01699829101562,38.52000045776367 110.01699829101562,38.52000045776367 C110.01699829101562,38.52000045776367 110.01699829101562,-38.52000045776367 110.01699829101562,-38.52000045776367 C110.01699829101562,-38.52000045776367 -110.01699829101562,-37.79999923706055 -110.01699829101562,-37.79999923706055z"/></g></g><g transform="matrix(1.059999942779541,0,0,1.059999942779541,157.00205993652344,243.031005859375)" opacity="0.5" style="mix-blend-mode: multiply; display: block;"><g opacity="1" transform="matrix(1,0,0,1,0,0)" style="mix-blend-mode: multiply;"><path class="secondary" fill="rgb(255,199,56)" fill-opacity="1" d=" M84.5999984741211,3.5 C84.5999984741211,3.5 -84.5999984741211,3.5 -84.5999984741211,3.5 C-86.53299713134766,3.5 -88.0999984741211,1.9329999685287476 -88.0999984741211,0 C-88.0999984741211,-1.9329999685287476 -86.53299713134766,-3.5 -84.5999984741211,-3.5 C-84.5999984741211,-3.5 84.5999984741211,-3.5 84.5999984741211,-3.5 C86.53299713134766,-3.5 88.0999984741211,-1.9329999685287476 88.0999984741211,0 C88.0999984741211,1.9329999685287476 86.53299713134766,3.5 84.5999984741211,3.5z"/></g></g><g transform="matrix(1.059999942779541,0,0,1.059999942779541,225.6900634765625,228)" opacity="1" style="display: block;"><g opacity="1" transform="matrix(1,0,0,1,0,0)"><path class="secondary" fill="rgb(255,199,56)" fill-opacity="1" d=" M173.16000366210938,61.08000183105469 C173.16000366210938,61.08000183105469 171.51300048828125,61.08000183105469 171.51300048828125,61.08000183105469 C171.57699584960938,60.816001892089844 171.6199951171875,60.54399871826172 171.6199951171875,60.2599983215332 C171.6199951171875,60.2599983215332 171.6199951171875,12.020000457763672 171.6199951171875,12.020000457763672 C171.6199951171875,3.3519999980926514 169.0489959716797,-3.5390000343322754 163.97900390625,-8.458000183105469 C156.20399475097656,-16.000999450683594 145.36399841308594,-15.982999801635742 144.32000732421875,-15.960000038146973 C144.32000732421875,-15.960000038146973 113.49400329589844,-15.960000038146973 113.49400329589844,-15.960000038146973 C113.49400329589844,-15.960000038146973 102.39900207519531,-83.83999633789062 102.39900207519531,-83.83999633789062 C102.39900207519531,-83.83999633789062 113.4000015258789,-83.83999633789062 113.4000015258789,-83.83999633789062 C115.33300018310547,-83.83999633789062 116.9000015258789,-85.40699768066406 116.9000015258789,-87.33999633789062 C116.9000015258789,-89.27300262451172 115.33300018310547,-90.83999633789062 113.4000015258789,-90.83999633789062 C113.4000015258789,-90.83999633789062 98.27999877929688,-90.83999633789062 98.27999877929688,-90.83999633789062 C98.27999877929688,-90.83999633789062 -172.44000244140625,-90.83999633789062 -172.44000244140625,-90.83999633789062 C-174.3730010986328,-90.83999633789062 -175.94000244140625,-89.27300262451172 -175.94000244140625,-87.33999633789062 C-175.94000244140625,-87.33999633789062 -175.94000244140625,64.58000183105469 -175.94000244140625,64.58000183105469 C-175.94000244140625,66.51300048828125 -174.3730010986328,68.08000183105469 -172.44000244140625,68.08000183105469 C-172.44000244140625,68.08000183105469 -116.63999938964844,68.08000183105469 -116.63999938964844,68.08000183105469 C-114.70700073242188,68.08000183105469 -113.13999938964844,66.51300048828125 -113.13999938964844,64.58000183105469 C-113.13999938964844,62.64699935913086 -114.70700073242188,61.08000183105469 -116.63999938964844,61.08000183105469 C-116.63999938964844,61.08000183105469 -168.94000244140625,61.08000183105469 -168.94000244140625,61.08000183105469 C-168.94000244140625,61.08000183105469 -168.94000244140625,-8.637999534606934 -168.94000244140625,-8.637999534606934 C-168.94000244140625,-8.637999534606934 43.65999984741211,-8.66100025177002 43.65999984741211,-8.66100025177002 C43.65999984741211,-8.66100025177002 43.65999984741211,61.08000183105469 43.65999984741211,61.08000183105469 C43.65999984741211,61.08000183105469 -97.66000366210938,61.08000183105469 -97.66000366210938,61.08000183105469 C-99.59300231933594,61.08000183105469 -101.16000366210938,62.64699935913086 -101.16000366210938,64.58000183105469 C-101.16000366210938,66.51300048828125 -99.59300231933594,68.08000183105469 -97.66000366210938,68.08000183105469 C-97.66000366210938,68.08000183105469 112.97899627685547,68.08000183105469 112.97899627685547,68.08000183105469 C114.91200256347656,68.08000183105469 116.47899627685547,66.51300048828125 116.47899627685547,64.58000183105469 C116.47899627685547,62.64699935913086 114.91200256347656,61.08000183105469 112.97899627685547,61.08000183105469 C112.97899627685547,61.08000183105469 80.18000030517578,61.08000183105469 80.18000030517578,61.08000183105469 C80.18000030517578,61.08000183105469 80.18000030517578,-83.83999633789062 80.18000030517578,-83.83999633789062 C80.18000030517578,-83.83999633789062 95.30599975585938,-83.83999633789062 95.30599975585938,-83.83999633789062 C95.30599975585938,-83.83999633789062 107.0199966430664,-12.175999641418457 107.0199966430664,-12.175999641418457 C107.0199966430664,-12.175999641418457 107.0199966430664,57.58000183105469 107.0199966430664,57.58000183105469 C107.0199966430664,59.51300048828125 108.58699798583984,61.08000183105469 110.5199966430664,61.08000183105469 C112.4530029296875,61.08000183105469 114.0199966430664,59.51300048828125 114.0199966430664,57.58000183105469 C114.0199966430664,57.58000183105469 114.0199966430664,-8.960000038146973 114.0199966430664,-8.960000038146973 C114.0199966430664,-8.960000038146973 144.45399475097656,-8.961000442504883 144.45399475097656,-8.961000442504883 C144.52699279785156,-8.961000442504883 153.3090057373047,-9.095999717712402 159.14599609375,-3.3919999599456787 C162.7779998779297,0.15700000524520874 164.6199951171875,5.3429999351501465 164.6199951171875,12.020000457763672 C164.6199951171875,12.020000457763672 164.6199951171875,60.2599983215332 164.6199951171875,60.2599983215332 C164.6199951171875,60.54399871826172 164.66299438476562,60.816001892089844 164.7270050048828,61.08000183105469 C164.7270050048828,61.08000183105469 133.9149932861328,61.08000183105469 133.9149932861328,61.08000183105469 C131.98199462890625,61.08000183105469 130.4149932861328,62.64699935913086 130.4149932861328,64.58000183105469 C130.4149932861328,66.51300048828125 131.98199462890625,68.08000183105469 133.9149932861328,68.08000183105469 C133.9149932861328,68.08000183105469 173.16000366210938,68.08000183105469 173.16000366210938,68.08000183105469 C175.09300231933594,68.08000183105469 176.66000366210938,66.51300048828125 176.66000366210938,64.58000183105469 C176.66000366210938,62.64699935913086 175.09300231933594,61.08000183105469 173.16000366210938,61.08000183105469z M-138.5,-15.600000381469727 C-138.5,-15.600000381469727 -168.94000244140625,-15.600000381469727 -168.94000244140625,-15.600000381469727 C-168.94000244140625,-15.600000381469727 -168.94000244140625,-83.83999633789062 -168.94000244140625,-83.83999633789062 C-168.94000244140625,-83.83999633789062 -138.5,-83.83999633789062 -138.5,-83.83999633789062 C-138.5,-83.83999633789062 -138.5,-15.600000381469727 -138.5,-15.600000381469727z M-101.77999877929688,-15.600000381469727 C-101.77999877929688,-15.600000381469727 -131.5,-15.600000381469727 -131.5,-15.600000381469727 C-131.5,-15.600000381469727 -131.5,-83.83999633789062 -131.5,-83.83999633789062 C-131.5,-83.83999633789062 -101.77999877929688,-83.83999633789062 -101.77999877929688,-83.83999633789062 C-101.77999877929688,-83.83999633789062 -101.77999877929688,-15.600000381469727 -101.77999877929688,-15.600000381469727z M-66.5,-15.600000381469727 C-66.5,-15.600000381469727 -94.77999877929688,-15.600000381469727 -94.77999877929688,-15.600000381469727 C-94.77999877929688,-15.600000381469727 -94.77999877929688,-83.83999633789062 -94.77999877929688,-83.83999633789062 C-94.77999877929688,-83.83999633789062 -66.5,-83.83999633789062 -66.5,-83.83999633789062 C-66.5,-83.83999633789062 -66.5,-15.600000381469727 -66.5,-15.600000381469727z M-30.5,-15.600000381469727 C-30.5,-15.600000381469727 -59.5,-15.600000381469727 -59.5,-15.600000381469727 C-59.5,-15.600000381469727 -59.5,-83.83999633789062 -59.5,-83.83999633789062 C-59.5,-83.83999633789062 -30.5,-83.83999633789062 -30.5,-83.83999633789062 C-30.5,-83.83999633789062 -30.5,-15.600000381469727 -30.5,-15.600000381469727z M5.5,-15.600000381469727 C5.5,-15.600000381469727 -23.5,-15.600000381469727 -23.5,-15.600000381469727 C-23.5,-15.600000381469727 -23.5,-83.83999633789062 -23.5,-83.83999633789062 C-23.5,-83.83999633789062 5.5,-83.83999633789062 5.5,-83.83999633789062 C5.5,-83.83999633789062 5.5,-15.600000381469727 5.5,-15.600000381469727z M43.65999984741211,-15.600000381469727 C43.65999984741211,-15.600000381469727 12.5,-15.600000381469727 12.5,-15.600000381469727 C12.5,-15.600000381469727 12.5,-83.83999633789062 12.5,-83.83999633789062 C12.5,-83.83999633789062 43.65999984741211,-83.83999633789062 43.65999984741211,-83.83999633789062 C43.65999984741211,-83.83999633789062 43.65999984741211,-15.600000381469727 43.65999984741211,-15.600000381469727z M73.18000030517578,61.08000183105469 C73.18000030517578,61.08000183105469 50.65999984741211,61.08000183105469 50.65999984741211,61.08000183105469 C50.65999984741211,61.08000183105469 50.65999984741211,-83.83999633789062 50.65999984741211,-83.83999633789062 C50.65999984741211,-83.83999633789062 73.18000030517578,-83.83999633789062 73.18000030517578,-83.83999633789062 C73.18000030517578,-83.83999633789062 73.18000030517578,61.08000183105469 73.18000030517578,61.08000183105469z"/></g></g><g transform="matrix(1.059999942779541,0,0,1.059999942779541,394.64105224609375,243.41200256347656)" opacity="1" style="display: block;"><g opacity="1" transform="matrix(1,0,0,1,0,0)"><path class="primary" fill="rgb(235,230,239)" fill-opacity="1" d=" M-8.788999557495117,3.515000104904175 C-10.652999877929688,3.440999984741211 -12.144000053405762,1.9079999923706055 -12.14799976348877,0.02500000037252903 C-12.152000427246094,-1.9079999923706055 -10.588000297546387,-3.4779999256134033 -8.654999732971191,-3.4820001125335693 C-8.654999732971191,-3.4820001125335693 8.640000343322754,-3.5179998874664307 8.640000343322754,-3.5179998874664307 C10.543000221252441,-3.5309998989105225 12.144000053405762,-1.9589999914169312 12.14799976348877,-0.02500000037252903 C12.152000427246094,1.9079999923706055 10.588000297546387,3.4779999256134033 8.654999732971191,3.4820001125335693 C8.654999732971191,3.4820001125335693 -8.640000343322754,3.5179998874664307 -8.640000343322754,3.5179998874664307 C-8.6899995803833,3.5179998874664307 -8.73900032043457,3.5169999599456787 -8.788999557495117,3.515000104904175z"/></g></g><g transform="matrix(1.0817872285842896,0,0,1.038212537765503,118.43714141845703,296.89630126953125)" opacity="1" style="display: block;"><g opacity="1" transform="matrix(1,0,0,1,0,0)"><path class="tertiary" fill="rgb(58,51,71)" fill-opacity="1" d=" M22.31999969482422,0 C22.31999969482422,12.32699966430664 12.32699966430664,22.31999969482422 0,22.31999969482422 C-12.32699966430664,22.31999969482422 -22.31999969482422,12.32699966430664 -22.31999969482422,0 C-22.31999969482422,-12.32699966430664 -12.32699966430664,-22.31999969482422 0,-22.31999969482422 C12.32699966430664,-22.31999969482422 22.31999969482422,-12.32699966430664 22.31999969482422,0z"/></g></g><g transform="matrix(1.0817872285842896,0,0,1.038212537765503,358.09130859375,296.89630126953125)" opacity="1" style="display: block;"><g opacity="1" transform="matrix(1,0,0,1,0,0)"><path class="tertiary" fill="rgb(58,51,71)" fill-opacity="1" d=" M22.31999969482422,0 C22.31999969482422,12.32699966430664 12.32699966430664,22.31999969482422 0,22.31999969482422 C-12.32699966430664,22.31999969482422 -22.31999969482422,12.32699966430664 -22.31999969482422,0 C-22.31999969482422,-12.32699966430664 -12.32699966430664,-22.31999969482422 0,-22.31999969482422 C12.32699966430664,-22.31999969482422 22.31999969482422,-12.32699966430664 22.31999969482422,0z"/></g></g><g transform="matrix(1.059999942779541,0,0,1.059999942779541,48.543060302734375,273.5589904785156)" opacity="1" style="display: block;"><g opacity="1" transform="matrix(1,0,0,1,0,0)"><path class="quaternary" fill="rgb(146,20,12)" fill-opacity="1" d=" M5.039999961853027,3.5 C5.039999961853027,3.5 -5.039999961853027,3.5 -5.039999961853027,3.5 C-6.9730000495910645,3.5 -8.539999961853027,1.9329999685287476 -8.539999961853027,0 C-8.539999961853027,-1.9329999685287476 -6.9730000495910645,-3.5 -5.039999961853027,-3.5 C-5.039999961853027,-3.5 5.039999961853027,-3.5 5.039999961853027,-3.5 C6.9730000495910645,-3.5 8.539999961853027,-1.9329999685287476 8.539999961853027,0 C8.539999961853027,1.9329999685287476 6.9730000495910645,3.5 5.039999961853027,3.5z"/></g></g></g></g></svg>